<?xml version="1.0" encoding="utf-8"?>
<!-- Generator: Adobe Illustrator 26.0.0, SVG Export Plug-In . SVG Version: 6.00 Build 0)  -->
<svg version="1.1" id="Layer_1" xmlns="http://www.w3.org/2000/svg" xmlns:xlink="http://www.w3.org/1999/xlink" x="0px" y="0px"
	 viewBox="0 0 1200 600" style="enable-background:new 0 0 1200 600;" xml:space="preserve">
<style type="text/css">
	.st0{fill:#FD404D;}
	.st1{fill:#00455C;}
</style>
<g>
	<path id="W_00000052812651456820502400000007684724272583710103_" class="st0" d="M789.02,209.98h25.41l39.77,143.85h0.51
		l42.32-143.85h27.96l42.31,143.85h0.51l39.78-143.85H1033l-52.36,179.93h-25.92l-43.46-146.89h-0.51l-43.21,146.89h-25.92
		L789.02,209.98z"/>
	<path id="N_00000004525104172199929460000001910311115284533140_" class="st0" d="M390.34,209.98h32.02l99.11,147.91h0.51V209.98
		h24.4v179.93h-31.01L415.25,242h-0.51v147.91h-24.4V209.98z"/>
	<path id="O_00000076592024040888671910000003281778200866555276_" class="st1" d="M256.9,210.04c-49.64,0-89.9,40.26-89.9,89.9
		c0,49.67,40.26,89.92,89.9,89.92c49.67,0,89.92-40.26,89.92-89.92C346.83,250.3,306.57,210.04,256.9,210.04z M256.9,363.32
		c-34.99,0-63.36-28.37-63.36-63.38c0-34.99,28.37-63.36,63.36-63.36c35.01,0,63.38,28.37,63.38,63.36
		C320.29,334.95,291.91,363.32,256.9,363.32z"/>
	
		<circle id="_x33__Circle_Right_00000065062205022446803750000012421845646031458695_" class="st1" cx="710.67" cy="299.96" r="7.96"/>
	
		<ellipse id="_x33__Circle_Midle_00000047762925919952441530000009017351889057239472_" class="st1" cx="678.63" cy="299.96" rx="8.03" ry="7.98"/>
	
		<circle id="_x33__Cirlce_Left_00000183216457540104595990000011914847020875689623_" class="st1" cx="646.65" cy="299.94" r="7.96"/>
	<path id="Circle_with_Tail_Cut_Out_00000160875853894066279720000012431699478855359160_" class="st0" d="M678.64,209.92
		c-49.73,0-90.07,40.33-90.07,90.07c0,49.76,40.33,90.09,90.07,90.09c49.76,0,90.09-40.33,90.09-90.09
		C768.73,250.26,728.4,209.92,678.64,209.92z M687.71,362.82c-6.2,9.11-16.65,15.09-28.51,15.09c-0.69,0-1.37-0.07-2.06-0.11h-0.18
		c-1.41-0.07-2.51-1.19-2.51-2.6c0-0.47,0.11-0.92,0.36-1.3c0.09-0.2,0.25-0.4,0.4-0.56c1.45-2.13,2.31-4.7,2.31-7.48v-0.43
		c-0.02-0.16-0.02-0.31-0.02-0.47c-0.04-0.6-0.13-1.19-0.25-1.75c-0.02-0.11-0.04-0.22-0.09-0.36c-0.63-1.97-1.99-3.63-3.8-4.61
		c-1.23-0.51-2.42-1.1-3.6-1.7c-0.72-0.36-1.43-0.74-2.15-1.16c-0.43-0.22-0.87-0.49-1.3-0.74c-0.13-0.09-0.27-0.16-0.38-0.22
		c-0.38-0.25-0.78-0.49-1.14-0.72c-0.65-0.4-1.3-0.83-1.92-1.28c-0.65-0.43-1.28-0.87-1.88-1.32c-1.03-0.76-2.01-1.54-2.98-2.35
		c-0.74-0.6-1.48-1.25-2.17-1.9c-0.07-0.04-0.13-0.11-0.2-0.18c-0.72-0.65-1.39-1.3-2.06-1.99c-0.69-0.69-1.34-1.39-1.99-2.1
		c-0.07-0.07-0.11-0.11-0.16-0.18c-0.65-0.72-1.3-1.45-1.9-2.22c-0.16-0.18-0.29-0.36-0.45-0.54c-0.51-0.65-1.01-1.28-1.5-1.95
		c-0.65-0.9-1.3-1.81-1.9-2.73c-6.65-10.03-10.5-22.05-10.5-34.98c0-35.05,28.43-63.48,63.48-63.48c35.07,0,63.5,28.43,63.5,63.48
		C742.14,331.97,718.48,358.45,687.71,362.82z"/>
</g>
</svg>
