<svg id="Layer_1" data-name="Layer 1" xmlns="http://www.w3.org/2000/svg" viewBox="0 0 370.53 94.6"><defs><style>.cls-1{fill:#fff;}</style></defs><path class="cls-1" d="M357.68,32.22H314.43a6,6,0,0,0-5.62,3.9l-11.59,31.1a6,6,0,0,0,5.62,8.09h14.31a6,6,0,0,0,5.61-3.89c3.1-8.27,6.85-18.4,7.94-21.43h0c.07-.19.14-.37.2-.56.91-2.49,1.7-5.08,2.73-7.5.81-1.89,2.48-3.57,5-3.32a3.24,3.24,0,0,1,2.2,1,3.13,3.13,0,0,1,.12,3.28c-1.89,4.74-3.63,9.55-5.37,14.37h0c0,.1-1.91,5.13-3.69,9.92a6,6,0,0,0,5.62,8.09h14.39a6,6,0,0,0,5.62-3.9l9.58-25.7A10,10,0,0,0,357.68,32.22Z"/><path class="cls-1" d="M299.33,32.22H280.57a3,3,0,0,0-2.81,1.92c-1.46,3.78-2.86,7.61-4.24,11.44l-4.38,12c-.07.19-.14.37-.2.56-.91,2.49-1.7,5.08-2.73,7.5a4.92,4.92,0,0,1-5,3.33,3.3,3.3,0,0,1-2.2-1.05,3.13,3.13,0,0,1-.12-3.28c1.89-4.74,3.63-9.55,5.37-14.37h0c.06-.19,4.51-12.33,4.57-12.52l.05-.12a4,4,0,0,0-3.76-5.37H247.74a6,6,0,0,0-5.62,3.91L230.53,67.22a6,6,0,0,0,5.62,8.09h48.71a6,6,0,0,0,5.62-3.9l12.6-33.79A4,4,0,0,0,299.33,32.22Z"/><path class="cls-1" d="M232.68,32.22h-18a4.1,4.1,0,0,0-3.82,2.61c-1.37,3.56-2.68,7.16-4,10.75l-4.37,12-.21.56c-.9,2.49-1.69,5.08-2.72,7.5a4.92,4.92,0,0,1-5,3.33,3.3,3.3,0,0,1-2.2-1.05A2.51,2.51,0,0,1,192,65.6l2.43-6.53c.43-1.15.86-2.29,1.28-3.44l6.71-18a4,4,0,0,0-3.74-5.4H186a4.11,4.11,0,0,0-3.83,2.61c-1.36,3.56-2.68,7.16-4,10.75l-4.38,12c-.07.19-.14.37-.2.56-.91,2.49-1.7,5.08-2.73,7.5-.81,1.89-2.47,3.57-5,3.33a3.32,3.32,0,0,1-2.2-1.05,3.11,3.11,0,0,1-.11-3.28c1.88-4.74,3.62-9.55,5.36-14.37h0l4.58-12.52,0-.12a4,4,0,0,0-3.76-5.37H152.42a6,6,0,0,0-5.62,3.9l-11.59,31.1a6,6,0,0,0,5.63,8.09h77.37a6,6,0,0,0,5.62-3.9l12.6-33.79A4,4,0,0,0,232.68,32.22Z"/><path class="cls-1" d="M63.06,59.76a8.18,8.18,0,0,0-.75-1.24c-.13-.15-.27-.3-.41-.44a8.12,8.12,0,0,0-.82-.72l-.11-.1a9.57,9.57,0,0,0-2.58-1.45c-2.08-.75-4.27-1.33-6.44-1.94a.68.68,0,0,1-.37-.9,1.14,1.14,0,0,1,.92-.58c2.26-.47,4.5-1,6.73-1.51a23.4,23.4,0,0,0,9.11-4.33c.51-.41,1-.86,1.45-1.28a18.34,18.34,0,0,0,4.88-7l.12-.34.14-.4,1.49-4,.84-2.19,10-26.79a2,2,0,0,0-2.85-2.45L59.09,16.16a12.68,12.68,0,0,0-5.73,6.69l-3.48,9.37H25.53A15,15,0,0,0,11.47,42L2.07,67.22a6,6,0,0,0,5.62,8.09h36.6A6,6,0,0,1,50,80c0,.11,0,.21.07.32l0,.25,0,.26,1.2,10A2,2,0,0,0,55.1,91s5.78-15.72,5.78-15.73l2.47-6.63a12.33,12.33,0,0,0,.81-3.88A10.21,10.21,0,0,0,63.06,59.76ZM45.81,43.17c-1.89,4.74-3.65,9.55-5.38,14.37h0c-.06.19-.13.37-.2.56-.9,2.49-1.69,5.08-2.73,7.5-.81,1.89-2.47,3.57-5,3.33a3.28,3.28,0,0,1-2.2-1.05,3.11,3.11,0,0,1-.12-3.28c1.89-4.74,3.63-9.55,5.36-14.37h0c.07-.19.14-.37.2-.56.91-2.49,1.86-5,2.73-7.5a4.76,4.76,0,0,1,5-3.33,3.3,3.3,0,0,1,2.2,1A3.13,3.13,0,0,1,45.81,43.17Z"/><path class="cls-1" d="M137.34,32.22h-18a4.09,4.09,0,0,0-3.82,2.62c-1.37,3.55-2.68,7.15-4,10.74l-4.38,12c-.06.19-.13.37-.2.56-.9,2.49-1.69,5.08-2.73,7.5-.81,1.89-2.47,3.57-5,3.33a3.28,3.28,0,0,1-2.2-1.05,3.11,3.11,0,0,1-.12-3.28c1.89-4.74,3.63-9.55,5.36-14.37h0l4.58-12.52.53-1.47a3,3,0,0,0-2.82-4H85.75a6,6,0,0,0-5.62,3.9L78.9,39.44a7.33,7.33,0,0,0-.47,2.07h0a12.88,12.88,0,0,0,0,1.76c0,.21,0,.41.08.61s.1.62.16.92.16.55.25.82.16.45.25.67a7.61,7.61,0,0,0,.35.7,4.75,4.75,0,0,0,.42.58,8.77,8.77,0,0,0,4.4,3.17c2.09.74,4.3,1.43,6.48,2a.68.68,0,0,1,.43.81c-.07.39-.63.7-1,.78-2.68.55-5.36,1.1-8,1.81a20,20,0,0,0-6,2.62,23,23,0,0,0-3.42,2.65l-.3.29a23.61,23.61,0,0,0-2.37,2.69,11.17,11.17,0,0,0-1.37,2.43h0l-.14.36a6,6,0,0,0,4.51,8H93.87v0H73.18a6.39,6.39,0,0,0,1,.09h48.71a6,6,0,0,0,5.62-3.9l12.59-33.79A4,4,0,0,0,137.34,32.22Z"/></svg>